<svg xmlns="http://www.w3.org/2000/svg" width="16" height="16" fill="none" viewBox="0 0 16 16"><mask id="a" fill="#fff"><path fill-rule="evenodd" d="M4.98 10.02a.5.5 0 0 1 0-.707l2.666-2.666a.5.5 0 0 1 .708 0l2.666 2.666a.5.5 0 1 1-.707.707L8 7.707 5.687 10.02a.5.5 0 0 1-.707 0" clip-rule="evenodd"/></mask><path fill="#6e4991" fill-rule="evenodd" d="M4.98 10.02a.5.5 0 0 1 0-.707l2.666-2.666a.5.5 0 0 1 .708 0l2.666 2.666a.5.5 0 1 1-.707.707L8 7.707 5.687 10.02a.5.5 0 0 1-.707 0" clip-rule="evenodd"/><path fill="#6e4991" d="m4.98 9.313.707.707zm2.666-2.666.708.707zm.708 0-.708.707zm2.666 2.666-.707.707zm-.707.707.707-.707zM8 7.707 8.707 7 8 6.293 7.293 7zM5.687 10.02l.707.707zm-.707 0 .707-.707a.5.5 0 0 1 0 .707l-.707-.707-.707-.707a1.5 1.5 0 0 0 0 2.121zm0-.707.707.707 2.667-2.666-.708-.707-.707-.708-2.666 2.667zm2.666-2.666.708.707a.5.5 0 0 1-.708 0l.708-.707.707-.708a1.5 1.5 0 0 0-2.122 0zm.708 0-.708.707 2.667 2.666.707-.707.707-.707L9.061 5.94zm2.666 2.666-.707.707a.5.5 0 0 1 0-.707l.707.707.707.707a1.5 1.5 0 0 0 0-2.12zm0 .707-.707-.707a.5.5 0 0 1 .707 0l-.707.707-.707.707a1.5 1.5 0 0 0 2.121 0zm-.707 0 .707-.707L8.707 7 8 7.707l-.707.707 2.313 2.313zM8 7.707 7.293 7 4.98 9.313l.707.707.707.707 2.313-2.313zM5.687 10.02l-.707-.707a.5.5 0 0 1 .707 0l-.707.707-.707.707a1.5 1.5 0 0 0 2.121 0z" mask="url(#a)"/></svg>