<svg xmlns="http://www.w3.org/2000/svg" width="16" height="16" fill="none" viewBox="0 0 16 16"><mask id="a" fill="#fff"><path fill-rule="evenodd" d="M5.98 4.98a.5.5 0 0 1 .707 0l2.667 2.667a.5.5 0 0 1 0 .707L6.687 11.02a.5.5 0 1 1-.707-.707L8.293 8 5.98 5.687a.5.5 0 0 1 0-.707" clip-rule="evenodd"/></mask><path fill="#6e4991" fill-rule="evenodd" d="M5.98 4.98a.5.5 0 0 1 .707 0l2.667 2.667a.5.5 0 0 1 0 .707L6.687 11.02a.5.5 0 1 1-.707-.707L8.293 8 5.98 5.687a.5.5 0 0 1 0-.707" clip-rule="evenodd"/><path fill="#6e4991" d="m6.687 4.98-.707.707zm2.667 2.667-.708.707zm0 .707-.708-.707zM6.687 11.02l-.707-.707zm-.707-.707.707.707zM8.293 8 9 8.707 9.707 8 9 7.293zM5.98 5.687l-.707.707zm0-.707.707.707a.5.5 0 0 1-.707 0l.707-.707.707-.707a1.5 1.5 0 0 0-2.121 0zm.707 0-.707.707 2.666 2.667.708-.707.707-.708-2.667-2.666zm2.667 2.667-.708.707a.5.5 0 0 1 0-.707l.708.707.707.707a1.5 1.5 0 0 0 0-2.122zm0 .707-.708-.707-2.666 2.666.707.707.707.707 2.667-2.666zM6.687 11.02l-.707-.707a.5.5 0 0 1 .707 0l-.707.707-.707.707a1.5 1.5 0 0 0 2.121 0zm-.707 0 .707-.707a.5.5 0 0 1 0 .707l-.707-.707-.707-.707a1.5 1.5 0 0 0 0 2.121zm0-.707.707.707L9 8.707 8.293 8l-.707-.707-2.313 2.313zM8.293 8 9 7.293 6.687 4.98l-.707.707-.707.707 2.313 2.313zM5.98 5.687l.707-.707a.5.5 0 0 1 0 .707L5.98 4.98l-.707-.707a1.5 1.5 0 0 0 0 2.121z" mask="url(#a)"/></svg>