<svg xmlns="http://www.w3.org/2000/svg" width="16" height="16" fill="none" viewBox="0 0 16 16"><mask id="a" fill="#fff"><path fill-rule="evenodd" d="M10.02 11.02a.5.5 0 0 1-.707 0L6.646 8.353a.5.5 0 0 1 0-.707L9.313 4.98a.5.5 0 1 1 .707.707L7.707 8l2.313 2.313a.5.5 0 0 1 0 .707" clip-rule="evenodd"/></mask><path fill="#6e4991" fill-rule="evenodd" d="M10.02 11.02a.5.5 0 0 1-.707 0L6.646 8.353a.5.5 0 0 1 0-.707L9.313 4.98a.5.5 0 1 1 .707.707L7.707 8l2.313 2.313a.5.5 0 0 1 0 .707" clip-rule="evenodd"/><path fill="#6e4991" d="m9.313 11.02.707-.707zM6.646 8.353l.708-.707zm0-.707.708.707zM9.313 4.98l.707.707zm.707.707-.707-.707zM7.707 8 7 7.293 6.293 8 7 8.707zm2.313 2.313.707-.707zm0 .707-.707-.707a.5.5 0 0 1 .707 0l-.707.707-.707.707a1.5 1.5 0 0 0 2.121 0zm-.707 0 .707-.707-2.666-2.667-.708.707-.707.708 2.667 2.666zM6.646 8.353l.708-.707a.5.5 0 0 1 0 .707l-.708-.707-.707-.707a1.5 1.5 0 0 0 0 2.122zm0-.707.708.707 2.666-2.666-.707-.707-.707-.707-2.667 2.666zM9.313 4.98l.707.707a.5.5 0 0 1-.707 0l.707-.707.707-.707a1.5 1.5 0 0 0-2.121 0zm.707 0-.707.707a.5.5 0 0 1 0-.707l.707.707.707.707a1.5 1.5 0 0 0 0-2.121zm0 .707-.707-.707L7 7.293 7.707 8l.707.707 2.313-2.313zM7.707 8 7 8.707l2.313 2.313.707-.707.707-.707-2.313-2.313zm2.313 2.313-.707.707a.5.5 0 0 1 0-.707l.707.707.707.707a1.5 1.5 0 0 0 0-2.121z" mask="url(#a)"/></svg>