<svg xmlns="http://www.w3.org/2000/svg" width="16" height="16" fill="none" viewBox="0 0 16 16"><mask id="a" fill="#fff"><path fill-rule="evenodd" d="M11.02 5.98a.5.5 0 0 1 0 .707L8.354 9.353a.5.5 0 0 1-.708 0L4.98 6.687a.5.5 0 1 1 .707-.707L8 8.293l2.313-2.313a.5.5 0 0 1 .707 0" clip-rule="evenodd"/></mask><path fill="#6e4991" fill-rule="evenodd" d="M11.02 5.98a.5.5 0 0 1 0 .707L8.354 9.353a.5.5 0 0 1-.708 0L4.98 6.687a.5.5 0 1 1 .707-.707L8 8.293l2.313-2.313a.5.5 0 0 1 .707 0" clip-rule="evenodd"/><path fill="#6e4991" d="m11.02 6.687-.707-.707zM8.354 9.353l-.708-.707zm-.708 0 .708-.707zM4.98 6.687l.707-.707zm.707-.707-.707.707zM8 8.293 7.293 9 8 9.707 8.707 9zm2.313-2.313-.707-.707zm.707 0-.707.707a.5.5 0 0 1 0-.707l.707.707.707.707a1.5 1.5 0 0 0 0-2.121zm0 .707-.707-.707-2.667 2.666.708.707.707.708 2.666-2.667zM8.354 9.353l-.708-.707a.5.5 0 0 1 .708 0l-.708.707-.707.708a1.5 1.5 0 0 0 2.122 0zm-.708 0 .708-.707L5.687 5.98l-.707.707-.707.707 2.666 2.667zM4.98 6.687l.707-.707a.5.5 0 0 1 0 .707L4.98 5.98l-.707-.707a1.5 1.5 0 0 0 0 2.12zm0-.707.707.707a.5.5 0 0 1-.707 0l.707-.707.707-.707a1.5 1.5 0 0 0-2.121 0zm.707 0-.707.707L7.293 9 8 8.293l.707-.707-2.313-2.313zM8 8.293 8.707 9l2.313-2.313-.707-.707-.707-.707-2.313 2.313zm2.313-2.313.707.707a.5.5 0 0 1-.707 0l.707-.707.707-.707a1.5 1.5 0 0 0-2.121 0z" mask="url(#a)"/></svg>