<svg xmlns="http://www.w3.org/2000/svg" width="27" height="27" fill="none" viewBox="0 0 27 27"><path fill="#6e4991" d="M9.966 5.166a4.746 4.746 0 1 1 0 9.491 4.746 4.746 0 0 1 0-9.491m0 .949a3.796 3.796 0 1 0 0 7.592 3.796 3.796 0 0 0 0-7.592m0 .95a.474.474 0 0 1 .472.418l.003.056v2.176L11.726 11a.475.475 0 0 1-.627.71l-.044-.039-1.424-1.423a.48.48 0 0 1-.135-.274l-.004-.062V7.539a.475.475 0 0 1 .474-.475M21.909 21.811h1.131v-3.764c0-.713-.3-1.396-.83-1.9a2.9 2.9 0 0 0-1.998-.788H17.95c-.75 0-1.468.284-1.999.788a2.63 2.63 0 0 0-.829 1.9v3.764h1.131v-3.764c0-.427.18-.838.498-1.14s.75-.473 1.199-.473h2.262c.45 0 .881.17 1.2.473s.496.713.497 1.14zM17.51 9.36a2.93 2.93 0 0 1 1.571-.454c.75 0 1.47.283 2 .787.53.505.828 1.189.828 1.902 0 .531-.166 1.051-.477 1.493s-.752.787-1.269.99a2.96 2.96 0 0 1-1.634.154 2.88 2.88 0 0 1-1.448-.736 2.65 2.65 0 0 1-.773-1.377 2.57 2.57 0 0 1 .16-1.553 2.72 2.72 0 0 1 1.042-1.207"/></svg>