<svg xmlns="http://www.w3.org/2000/svg" width="22" height="22" fill="none" viewBox="0 0 22 22"><path fill="#8c5aba" d="m7.98 1.606-.88.27a4.3 4.3 0 0 0-2.02 1.337 4.4 4.4 0 0 0-.995 2.232c-.365 2.585.45 5.609 2.418 9.076 1.962 3.458 4.121 5.686 6.499 6.662a4.23 4.23 0 0 0 2.409.24 4.27 4.27 0 0 0 2.155-1.122l.666-.642a2.534 2.534 0 0 0 .303-3.28l-1.666-2.35a1.85 1.85 0 0 0-.907-.68 1.8 1.8 0 0 0-1.126-.016l-2.52.784-.065.012c-.278.042-.919-.57-1.717-1.978-.836-1.473-1.008-2.334-.778-2.557l1.281-1.216a3.14 3.14 0 0 0 .915-1.667 3.18 3.18 0 0 0-.208-1.897l-.814-1.839a2.48 2.48 0 0 0-1.22-1.25 2.42 2.42 0 0 0-1.73-.12m1.832 1.882.811 1.839c.158.357.201.755.126 1.138a1.9 1.9 0 0 1-.548 1L8.915 8.683c-.823.793-.55 2.146.556 4.094 1.04 1.833 1.988 2.738 3.007 2.58l.153-.032 2.565-.797a.6.6 0 0 1 .678.232l1.666 2.35a1.27 1.27 0 0 1-.151 1.64l-.667.643c-.427.412-.961.69-1.54.801a3 3 0 0 1-1.72-.172c-2.086-.855-4.058-2.89-5.894-6.126C5.726 10.65 4.98 7.89 5.3 5.622c.083-.59.33-1.143.711-1.594a3.07 3.07 0 0 1 1.443-.955l.88-.27c.286-.088.593-.066.865.06.27.126.488.348.61.625"/></svg>