<svg xmlns="http://www.w3.org/2000/svg" width="24" height="24" fill="none" viewBox="0 0 24 24"><g clip-path="url(#a)"><path fill="#6e4991" d="M12.081 7.533a4.5 4.5 0 1 0 0 9 4.5 4.5 0 0 0 0-9m0 7.5c-1.654 0-3.034-1.378-3.034-3.033 0-1.654 1.346-3 3-3s3 1.346 3 3c0 1.655-1.311 3.033-2.966 3.033m11.912-3.207c-.01-.038-.005-.078-.017-.115-.005-.016-.014-.025-.02-.039-.008-.021-.006-.046-.017-.067-2.181-4.994-6.882-7.87-11.892-7.87S2.24 6.606.059 11.6c-.01.021-.008.043-.016.067-.005.015-.016.023-.02.037-.012.038-.008.077-.015.115a1 1 0 0 0-.027.202 1 1 0 0 0 .027.201c.007.038.003.078.014.114.005.017.016.024.021.04.008.02.006.046.016.067C2.24 17.436 6.99 20.263 12 20.263s9.758-2.82 11.94-7.816c.01-.021.009-.043.017-.067.005-.013.015-.023.02-.038.011-.036.008-.077.016-.115.013-.067.025-.133.025-.202a1 1 0 0 0-.026-.199M12 18.764c-4.25 0-8.431-2.24-10.486-6.743 2.035-4.487 6.273-6.785 10.533-6.785 4.258 0 8.402 2.3 10.438 6.79-2.034 4.486-6.225 6.738-10.485 6.738"/><path stroke="#6e4991" stroke-width="2" d="m1.707 1.293 20 20"/></g><defs><clipPath id="a"><path fill="#fff" d="M0 0h24v24H0z"/></clipPath></defs></svg>