<svg xmlns="http://www.w3.org/2000/svg" width="16" height="22" fill="none" viewBox="0 0 16 22"><path fill="#6e4991" fill-rule="evenodd" d="M14.144 2.71a2.71 2.71 0 1 1-5.419 0 2.71 2.71 0 0 1 5.42 0m-1.084 0a1.625 1.625 0 1 1-3.25 0 1.625 1.625 0 0 1 3.25 0M8.355 4.644c-.775-.37-1.576-.374-2.234-.296-1.81.214-3.16 1.26-4.046 2.183-.73.76-1.27 1.579-1.526 1.967l-.004.006-.112.168a1.626 1.626 0 0 0 2.658 1.871c.065-.092.135-.197.207-.305l.002-.005c.25-.374.565-.847 1.005-1.327a67 67 0 0 0-.692 1.973c-.07.245-.085.502-.045.753.025.155.065.282.094.365.06.168.137.318.197.428.124.227.287.48.454.723.34.496.792 1.1 1.235 1.674.392.51.79 1.016 1.116 1.43l.133.168.426.545.037.05s.03.115.047.192c.061.263.133.61.21.999l.151.778.002.009c.101.526.202 1.052.28 1.407a1.625 1.625 0 1 0 3.175-.703c-.068-.31-.157-.767-.255-1.281-.052-.272-.108-.558-.164-.84q-.107-.555-.232-1.105a9 9 0 0 0-.117-.457v-.003a2.6 2.6 0 0 0-.227-.56 4 4 0 0 0-.316-.45l-.015-.019-.447-.573-.133-.167v-.002q-.511-.647-1.016-1.298l1.08-2.224c.65.456 1.414.72 2.206.762 1.341.072 2.513-.516 2.954-.737l.014-.007q.074-.038.11-.054a1.626 1.626 0 0 0-1.387-2.941l-.185.088c-.502.242-.91.427-1.333.404a1 1 0 0 1-.607-.247c-.252-.202-.61-.617-.977-1.458-.356-.816-.907-1.495-1.723-1.884M7.26 17.015c-.006-.024.005.018 0 0M6.249 5.425c.56-.067 1.127-.046 1.64.198.525.25.917.7 1.196 1.339.415.953.867 1.529 1.292 1.87.419.336.836.463 1.227.485.726.039 1.368-.271 1.823-.492l.039-.018.176-.085a.542.542 0 0 1 .463.98l-.13.064-.004.002c-.436.219-1.385.686-2.425.63a3.18 3.18 0 0 1-1.847-.72 4 4 0 0 1-.234-.204.542.542 0 0 0-.859.158l-1.524 3.14a.54.54 0 0 0 .058.565l.126.165c.384.498.774.994 1.101 1.41l.002.002.13.167c.175.222.328.415.441.563l.006.007c.097.126.199.26.244.338.058.103.1.235.126.329.033.112.068.249.102.4.07.3.148.676.225 1.069l.163.834v.009c.098.504.189.976.261 1.303a.542.542 0 0 1-1.058.234c-.075-.339-.173-.851-.277-1.386v-.002l-.152-.782c-.077-.39-.152-.753-.217-1.035a7 7 0 0 0-.087-.342.5.5 0 0 0-.087-.173l-.107-.142-.433-.555-.132-.166q-.56-.707-1.11-1.421a40 40 0 0 1-1.2-1.626 8 8 0 0 1-.397-.63 2 2 0 0 1-.127-.273 1 1 0 0 1-.044-.169.65.65 0 0 1 .015-.284c.066-.226.502-1.443.909-2.567l.397-1.095a.542.542 0 0 0-.745-.673c-.598.287-1.123.715-1.576 1.187-.572.596-.965 1.187-1.236 1.595l-.005.007q-.11.168-.193.286a.542.542 0 1 1-.886-.624l.126-.189.005-.007c.254-.384.749-1.133 1.407-1.818.802-.837 1.935-1.685 3.392-1.858" clip-rule="evenodd"/><path fill="#6e4991" fill-rule="evenodd" d="M5.428 12.861a.542.542 0 0 0-.952.138l-.284.818-2.22-.522a1.626 1.626 0 0 0-.744 3.165l3.646.857a1.626 1.626 0 0 0 1.908-1.048l.265-.763a.54.54 0 0 0-.072-.495zm-.373 1.773.102-.293.774 1.075-.174.497a.54.54 0 0 1-.635.35l-3.645-.858a.542.542 0 0 1 .247-1.055l2.696.633a.54.54 0 0 0 .635-.35" clip-rule="evenodd"/></svg>