<svg xmlns="http://www.w3.org/2000/svg" width="34" height="26" fill="none" viewBox="0 0 34 26"><path fill="#fff" d="M5.867.49H27.78a5.38 5.38 0 0 1 5.378 5.377v14.266a5.38 5.38 0 0 1-5.378 5.378H5.867A5.38 5.38 0 0 1 .49 20.133V5.867A5.38 5.38 0 0 1 5.867.49"/><path stroke="#6e4991" stroke-width=".978" d="M5.867.49H27.78a5.38 5.38 0 0 1 5.378 5.377v14.266a5.38 5.38 0 0 1-5.378 5.378H5.867A5.38 5.38 0 0 1 .49 20.133V5.867A5.38 5.38 0 0 1 5.867.49Z"/><path stroke="#6e4991" stroke-linecap="round" stroke-linejoin="round" stroke-width="1.147" d="M11.007 17.726h-1.63a1.63 1.63 0 0 1-1.63-1.63v-4.074a1.63 1.63 0 0 1 1.63-1.63h13.038a1.63 1.63 0 0 1 1.63 1.63v4.074a1.63 1.63 0 0 1-1.63 1.63h-1.63"/><path stroke="#6e4991" stroke-linecap="round" stroke-linejoin="round" stroke-width="1.147" d="M11.007 10.393v-4.89a.815.815 0 0 1 .815-.814h8.149a.815.815 0 0 1 .814.815v4.889M19.97 14.467h-8.148a.815.815 0 0 0-.815.815v4.889c0 .45.365.815.815.815h8.149c.45 0 .814-.365.814-.815v-4.89a.815.815 0 0 0-.814-.814"/></svg>