<svg xmlns="http://www.w3.org/2000/svg" width="25" height="25" fill="none" viewBox="0 0 25 25"><circle cx="12.5" cy="12.5" r="12.5" fill="#6e4991"/><path fill="#fff" d="M18.52 15.032c-.406 1.28-1.37 2.371-2.702 3.058s-2.933.917-4.488.648c-1.556-.268-2.951-1.018-3.912-2.101s-1.415-2.42-1.275-3.746l.69.068c-.125 1.181.28 2.371 1.135 3.335s2.098 1.631 3.482 1.87 2.81.034 3.996-.577c1.185-.61 2.044-1.582 2.406-2.722z"/><path fill="#fff" d="m6.639 11.01 1.165 2.047-2.651-.22zM6.31 9.968c.407-1.28 1.371-2.371 2.703-3.057 1.331-.687 2.933-.918 4.488-.65 1.555.27 2.95 1.02 3.911 2.102.96 1.083 1.416 2.42 1.276 3.746l-.69-.068c.125-1.181-.28-2.371-1.136-3.335-.854-.964-2.097-1.631-3.481-1.87-1.385-.24-2.81-.034-3.996.577-1.185.61-2.044 1.582-2.406 2.722z"/><path fill="#fff" d="m18.192 13.99-1.165-2.047 2.65.22z"/></svg>