<svg xmlns="http://www.w3.org/2000/svg" width="27" height="27" fill="none" viewBox="0 0 27 27"><path fill="#e0d2ea" d="m25.06 16.284-2.532-2.53a.816.816 0 0 0-1.181 0L13.5 21.6v3.712h3.712l7.847-7.846a.816.816 0 0 0 0-1.182m-8.522 7.341h-1.35v-1.35l4.218-4.219 1.35 1.35zm5.4-5.4-1.35-1.35 1.35-1.35 1.35 1.35zm-13.5 1.181h1.687v1.688H8.438zm3.374-4.218h3.376v1.687h-3.376zm-3.374 0h1.687v1.687H8.438zm3.374-4.22h6.75v1.688h-6.75zm-3.374 0h1.687v1.688H8.438z"/><path fill="#e0d2ea" d="M5.906 23.625V5.906h2.532v2.532h10.125V5.906h2.53v5.063h1.688V5.906c0-.928-.76-1.687-1.687-1.687h-2.532v-.844c0-.928-.759-1.687-1.687-1.687h-6.75c-.928 0-1.687.759-1.687 1.687v.844H5.906c-.928 0-1.687.76-1.687 1.687v17.719c0 .928.76 1.688 1.687 1.688h4.219v-1.688zm4.219-20.25h6.75V6.75h-6.75z"/></svg>