<svg xmlns="http://www.w3.org/2000/svg" width="25" height="25" fill="none" viewBox="0 0 25 25"><path stroke="#6e4991" stroke-linecap="round" stroke-linejoin="round" stroke-width=".781" d="M5.25 8.073V6.12a1.953 1.953 0 0 1 1.953-1.953h1.953M5.25 16.886v1.953a1.953 1.953 0 0 0 1.953 1.953h1.953M17.97 4.167h1.953a1.953 1.953 0 0 1 1.953 1.953v1.953m-3.906 12.719h1.953a1.953 1.953 0 0 0 1.953-1.953v-1.953"/><g stroke="#6e4991" stroke-linecap="round" stroke-linejoin="round" clip-path="url(#a)"><path d="M11.437 8.663H10a.48.48 0 0 0-.479.479v1.436c0 .265.215.48.48.48h1.436a.48.48 0 0 0 .478-.48V9.142a.48.48 0 0 0-.478-.479M17.661 8.663h-1.436a.48.48 0 0 0-.48.479v1.436c0 .265.215.48.48.48h1.436a.48.48 0 0 0 .479-.48V9.142a.48.48 0 0 0-.479-.479M11.437 14.888H10a.48.48 0 0 0-.479.479v1.436c0 .264.215.479.48.479h1.436a.48.48 0 0 0 .478-.48v-1.435a.48.48 0 0 0-.478-.48M18.14 14.888h-1.437a.96.96 0 0 0-.957.957v1.437M18.14 17.282v.004M13.83 10.578v1.437a.96.96 0 0 1-.957.957h-1.436M9.521 12.972h.004M13.83 8.663h.005M13.83 14.888v.004M15.746 12.972h.479M18.14 12.972v.004M13.83 17.282v-.48"/></g><defs><clipPath id="a"><path fill="#fff" d="M7.813 6.25h12.5v12.5h-12.5z"/></clipPath></defs></svg>