<svg xmlns="http://www.w3.org/2000/svg" width="22" height="22" fill="none" viewBox="0 0 22 22"><path stroke="#8c5aba" stroke-linecap="round" stroke-linejoin="round" stroke-width="1.5" d="M11.202 1.834H10.8a1.833 1.833 0 0 0-1.834 1.833v.165a1.83 1.83 0 0 1-.916 1.586l-.394.23a1.83 1.83 0 0 1-1.834 0l-.137-.074a1.833 1.833 0 0 0-2.503.67l-.201.347a1.833 1.833 0 0 0 .669 2.503l.137.092a1.83 1.83 0 0 1 .917 1.576v.468a1.83 1.83 0 0 1-.917 1.595l-.137.082a1.833 1.833 0 0 0-.67 2.503l.202.348a1.834 1.834 0 0 0 2.503.67l.137-.074a1.83 1.83 0 0 1 1.834 0l.394.23a1.83 1.83 0 0 1 .916 1.585v.165a1.833 1.833 0 0 0 1.834 1.833h.403a1.833 1.833 0 0 0 1.834-1.833v-.165a1.83 1.83 0 0 1 .916-1.586l.394-.229a1.83 1.83 0 0 1 1.834 0l.137.073a1.833 1.833 0 0 0 2.503-.669l.201-.357a1.833 1.833 0 0 0-.669-2.503l-.137-.073a1.83 1.83 0 0 1-.917-1.595v-.459a1.83 1.83 0 0 1 .917-1.595l.137-.082a1.834 1.834 0 0 0 .67-2.503l-.202-.348a1.834 1.834 0 0 0-2.503-.669l-.137.073a1.83 1.83 0 0 1-1.834 0l-.394-.229a1.83 1.83 0 0 1-.916-1.586v-.165a1.833 1.833 0 0 0-1.834-1.833"/><path stroke="#8c5aba" stroke-linecap="round" stroke-linejoin="round" stroke-width="1.5" d="M11 13.75a2.75 2.75 0 1 0 0-5.5 2.75 2.75 0 0 0 0 5.5"/></svg>