<svg xmlns="http://www.w3.org/2000/svg" width="20" height="20" fill="none" viewBox="0 0 20 20"><path fill="#8c5aba" fill-rule="evenodd" d="M8.388.987c.72-1.316 2.505-1.316 3.224 0l2.198 4.032c.203.371.554.624.953.688l3.652.587c1.59.256 2.148 2.394.909 3.486l-2.66 2.344a1.4 1.4 0 0 0-.404.611c-.08.239-.1.496-.054.745l.745 4.163c.291 1.63-1.318 2.896-2.699 2.124l-3.632-2.035a1.27 1.27 0 0 0-1.24 0l-3.632 2.035c-1.38.774-2.99-.494-2.698-2.124l.745-4.164a1.5 1.5 0 0 0-.055-.744c-.08-.238-.22-.45-.403-.611L.676 9.78c-1.238-1.092-.682-3.23.911-3.486l3.651-.587c.197-.032.385-.11.55-.23.165-.119.302-.276.402-.46zm1.842.853a.3.3 0 0 0-.097-.103.25.25 0 0 0-.265 0 .3.3 0 0 0-.098.103L7.57 5.87c-.22.404-.522.75-.884 1.011a2.8 2.8 0 0 1-1.21.505l-3.65.586a.26.26 0 0 0-.137.068.3.3 0 0 0-.08.137.3.3 0 0 0 .002.16.3.3 0 0 0 .085.134l2.66 2.344c.403.355.71.82.887 1.344s.219 1.09.121 1.637l-.745 4.163a.3.3 0 0 0 .013.156q.03.076.09.124a.26.26 0 0 0 .282.023l3.633-2.034c.42-.235.888-.358 1.363-.358s.944.123 1.364.358l3.632 2.034a.25.25 0 0 0 .283-.023.3.3 0 0 0 .09-.124.3.3 0 0 0 .013-.156l-.746-4.163a3.3 3.3 0 0 1 .122-1.637c.177-.525.483-.989.887-1.344l2.661-2.344a.3.3 0 0 0 .084-.134.3.3 0 0 0-.078-.297.26.26 0 0 0-.137-.068l-3.651-.586a2.8 2.8 0 0 1-1.21-.505 3.05 3.05 0 0 1-.884-1.012z" clip-rule="evenodd"/></svg>