<svg xmlns="http://www.w3.org/2000/svg" width="22" height="22" fill="none" viewBox="0 0 22 22"><g stroke="#6e4991" stroke-linecap="round" stroke-linejoin="round" stroke-width="1.3" clip-path="url(#a)"><path d="m21.313 19.236-1.366-2.049v-4.812c0-1.833-3.484-3.795-4.813-4.812m1.77 5.997-3.345-2.68a1.195 1.195 0 1 0-1.689 1.69l3.239 3.655v2.292c0 1.082 1.547 2.79 1.547 2.79"/><path d="M12.384 19.938H1.956a1.26 1.26 0 0 1-1.26-1.26V1.946a1.26 1.26 0 0 1 1.26-1.26h11.917a1.26 1.26 0 0 1 1.261 1.26v10.196M8.947 3.438h2.75m0 0v2.75m0-2.75L3.447 11m1.366 3.438v2.75m2.75-4.813v4.813"/></g><defs><clipPath id="a"><path fill="#fff" d="M0 0h22v22H0z"/></clipPath></defs></svg>