<svg xmlns="http://www.w3.org/2000/svg" width="23" height="23" fill="none" viewBox="0 0 23 23"><path stroke="#6e4991" stroke-linecap="round" stroke-linejoin="round" stroke-width="1.15" d="M15.333 2.875v3.407M7.667 2.875v3.407M3.833 9.69h15.334M3.833 6.282c0-.451.202-.885.562-1.204.36-.32.847-.5 1.355-.5h11.5c.508 0 .996.18 1.355.5.36.32.562.753.562 1.204v10.223c0 .451-.202.885-.562 1.204-.36.32-.847.5-1.355.5H5.75c-.508 0-.996-.18-1.355-.5a1.61 1.61 0 0 1-.562-1.204z"/><g clip-path="url(#a)"><path fill="#6e4991" d="m7.666 15.218-.662.399a.15.15 0 0 1-.092.024.16.16 0 0 1-.084-.032.2.2 0 0 1-.056-.07.14.14 0 0 1-.008-.094l.176-.755-.587-.507a.15.15 0 0 1-.044-.171.2.2 0 0 1 .048-.072.17.17 0 0 1 .087-.036l.775-.068.3-.71a.14.14 0 0 1 .062-.073.2.2 0 0 1 .085-.024q.044 0 .086.024t.062.072l.3.71.774.069a.17.17 0 0 1 .088.036.17.17 0 0 1 .054.162.15.15 0 0 1-.05.081l-.587.507.176.755a.14.14 0 0 1-.008.094.2.2 0 0 1-.056.07.16.16 0 0 1-.084.032.14.14 0 0 1-.092-.024z"/></g><g clip-path="url(#b)"><path fill="#efeef2" d="m7.667 14.797-.332.2a.076.076 0 0 1-.088-.004.1.1 0 0 1-.028-.036.07.07 0 0 1-.004-.047l.088-.377-.293-.254a.08.08 0 0 1-.022-.085.1.1 0 0 1 .024-.036.1.1 0 0 1 .044-.018l.387-.034.15-.356a.07.07 0 0 1 .03-.036.1.1 0 0 1 .044-.012q.021 0 .042.012t.031.036l.15.356.388.034a.1.1 0 0 1 .043.018.09.09 0 0 1 .027.08.1.1 0 0 1-.025.041l-.293.254.088.377a.07.07 0 0 1-.004.047.1.1 0 0 1-.028.035.1.1 0 0 1-.042.016.07.07 0 0 1-.046-.012z"/></g><path fill="#6e4991" d="m11.5 15.102-1.326.798a.3.3 0 0 1-.183.048.3.3 0 0 1-.168-.064.4.4 0 0 1-.112-.14.28.28 0 0 1-.016-.187l.352-1.51-1.174-1.014a.305.305 0 0 1-.088-.343.34.34 0 0 1 .096-.144.33.33 0 0 1 .175-.072l1.55-.136.599-1.421a.3.3 0 0 1 .124-.144.34.34 0 0 1 .171-.048q.088 0 .172.048t.124.144l.599 1.422 1.549.135a.33.33 0 0 1 .175.072.34.34 0 0 1 .108.324.3.3 0 0 1-.1.163l-1.173 1.015.351 1.509a.28.28 0 0 1-.016.188.4.4 0 0 1-.112.14.3.3 0 0 1-.168.063.3.3 0 0 1-.183-.048z"/><path fill="#efeef2" d="m11.5 14.711-.93.586a.2.2 0 0 1-.128.035.2.2 0 0 1-.117-.047.3.3 0 0 1-.079-.102.2.2 0 0 1-.011-.138l.246-1.107-.822-.745a.23.23 0 0 1-.07-.12.25.25 0 0 1 .008-.132.25.25 0 0 1 .067-.105.23.23 0 0 1 .123-.053l1.086-.1.42-1.043a.2.2 0 0 1 .087-.105.23.23 0 0 1 .12-.035q.06 0 .12.035t.087.105l.42 1.043 1.086.1a.23.23 0 0 1 .123.053q.045.04.067.105a.25.25 0 0 1 .008.132.22.22 0 0 1-.07.12l-.822.745.246 1.107a.2.2 0 0 1-.011.138.3.3 0 0 1-.079.102.2.2 0 0 1-.117.047.2.2 0 0 1-.129-.035z"/><g clip-path="url(#c)"><path fill="#6e4991" d="m15.333 15.218-.663.399a.15.15 0 0 1-.092.024.16.16 0 0 1-.083-.032.2.2 0 0 1-.056-.07.14.14 0 0 1-.008-.094l.175-.755-.587-.507a.15.15 0 0 1-.044-.171.2.2 0 0 1 .048-.072.17.17 0 0 1 .088-.036l.775-.068.3-.71a.14.14 0 0 1 .061-.073.2.2 0 0 1 .086-.024q.045 0 .086.024.042.024.062.072l.3.71.774.069a.17.17 0 0 1 .088.036.17.17 0 0 1 .054.162.15.15 0 0 1-.05.081l-.587.507.175.755a.14.14 0 0 1-.008.094.2.2 0 0 1-.055.07.16.16 0 0 1-.084.032.14.14 0 0 1-.092-.024z"/></g><g clip-path="url(#d)"><path fill="#efeef2" d="m15.333 14.797-.331.2a.076.076 0 0 1-.088-.004.1.1 0 0 1-.028-.036.07.07 0 0 1-.004-.047l.088-.377-.294-.254a.1.1 0 0 1-.024-.04.086.086 0 0 1 .027-.08.1.1 0 0 1 .043-.02l.388-.033.15-.356a.07.07 0 0 1 .03-.036.1.1 0 0 1 .043-.012q.023 0 .043.012t.031.036l.15.356.387.034a.1.1 0 0 1 .044.018.09.09 0 0 1 .027.08.1.1 0 0 1-.025.041l-.293.254.088.377a.07.07 0 0 1-.005.047.1.1 0 0 1-.027.035.1.1 0 0 1-.042.016.07.07 0 0 1-.046-.012z"/></g><defs><clipPath id="a"><path fill="#fff" d="M5.75 12.459h3.833v3.832H5.75z"/></clipPath><clipPath id="b"><path fill="#fff" d="M6.708 13.417h1.917v1.917H6.708z"/></clipPath><clipPath id="c"><path fill="#fff" d="M13.417 12.459h3.832v3.832h-3.832z"/></clipPath><clipPath id="d"><path fill="#fff" d="M14.375 13.417h1.917v1.917h-1.917z"/></clipPath></defs></svg>