<svg xmlns="http://www.w3.org/2000/svg" width="25" height="25" fill="none" viewBox="0 0 25 25"><path fill="#6e4991" d="M19.844 5.115a10.23 10.23 0 0 0-7.302-3.032c-5.688 0-10.323 4.636-10.323 10.323 0 1.823.479 3.594 1.375 5.156l-1.459 5.355 5.47-1.438c1.51.823 3.207 1.26 4.937 1.26 5.687 0 10.323-4.635 10.323-10.322 0-2.76-1.073-5.355-3.021-7.302M12.542 20.99a8.6 8.6 0 0 1-4.375-1.198l-.313-.188-3.25.854.865-3.166-.209-.323a8.6 8.6 0 0 1-1.312-4.563c0-4.729 3.854-8.583 8.583-8.583 2.292 0 4.448.896 6.063 2.52a8.52 8.52 0 0 1 2.51 6.074c.021 4.729-3.833 8.573-8.562 8.573m4.708-6.417c-.26-.125-1.531-.75-1.76-.844-.24-.083-.407-.125-.584.125-.177.26-.666.844-.812 1.01-.146.178-.302.198-.563.063-.26-.125-1.094-.406-2.073-1.281-.77-.688-1.28-1.531-1.437-1.792-.146-.26-.021-.396.114-.531.115-.115.26-.302.386-.448.125-.146.177-.26.26-.427.084-.177.042-.323-.02-.448a86 86 0 0 1-.792-1.917c-.209-.5-.427-.437-.584-.448h-.5a.94.94 0 0 0-.687.323c-.23.26-.896.886-.896 2.157s.927 2.5 1.052 2.666c.125.177 1.823 2.781 4.406 3.896.615.27 1.094.427 1.47.542.614.198 1.176.166 1.624.104.5-.073 1.531-.625 1.74-1.23.218-.603.218-1.114.146-1.228-.073-.115-.23-.167-.49-.292"/></svg>